<?xml version="1.0" encoding="utf-8"?>
<!-- Generator: Adobe Illustrator 28.3.0, SVG Export Plug-In . SVG Version: 6.00 Build 0)  -->
<svg version="1.1" id="Layer_1" xmlns="http://www.w3.org/2000/svg" xmlns:xlink="http://www.w3.org/1999/xlink" x="0px" y="0px"
	 viewBox="0 0 2000 2000" style="enable-background:new 0 0 2000 2000;" xml:space="preserve">
<path d="M244.3,1014.9c4.7-11.4,8.1-23.6,14.3-34.1c44.7-75.9,89.9-151.4,134.9-227.1c51.5-86.5,103-172.9,154.4-259.4
	c20-33.6,39.8-67.2,59.5-101c15.1-25.9,33.1-33.4,61.1-24.3c97.1,31.4,194.1,62.9,291.2,94.3c98,31.8,196,63.6,294,95.4
	c24.8,8,49.8,15.6,74.5,23.7c25.3,8.4,35.1,25.9,24.4,50.2c-12.8,29.1-28.8,56.8-43.9,84.9c-29.1,54.2-58.5,108.3-87.8,162.4
	c-41.9,77.5-83.8,155-125.6,232.6c-36.4,67.6-72.7,135.3-108.6,203.2c-18,34.1-35.7,40.1-71.1,24.1
	c-85.4-38.5-171.2-76.3-256.7-114.8c-55.2-24.9-110.1-50.6-165.3-75.6c-75.3-34.2-150.6-68.3-226-102.3
	C254.1,1041.1,246.1,1031.5,244.3,1014.9z"/>
<path d="M323.3,1139.9c16.7,7.6,31.3,14.1,45.8,20.8c58.8,27,117.5,54.2,176.3,81c80.1,36.4,160.4,72.6,240.7,108.8
	c36.4,16.5,73,32.5,109.3,49.4c54.5,25.3,107.2,10.5,139.5-40c8.7-13.6,16.8-27.5,27.2-44.7c0.5,8.8,1.1,14.5,1.1,20.2
	c-0.3,85.5-0.6,171-0.9,256.5c-0.1,39.6-0.3,79.3-0.1,118.9c0,7.6-1.9,11.4-10.2,12.4c-47.8,5.9-95.5,13.3-143.4,18
	c-12.1,1.2-26-3.4-37.4-8.7c-58-26.7-115.4-54.8-173.2-82c-97.6-45.9-195.4-91.4-293.2-137.1c-21.6-10.1-42.7-21.3-64.7-30.5
	c-12.4-5.2-16.6-12.8-16.6-25.6c0.2-78.9-0.1-157.8-0.3-236.8C323.3,1194.5,323.3,1168.5,323.3,1139.9z"/>
<path d="M1481.5,1197.5c0,52.7,0,103.1,0,153.5c0,46,0.3,92-0.3,138c-0.1,5.6-3.4,13.8-7.7,16.3c-49.1,28.8-98.8,56.6-149.9,85.7
	c-0.3-5.9-0.7-9.8-0.7-13.6c0-92,0.2-184-0.4-276c-0.1-13.5,3.8-19.7,16.5-25.9c35.8-17.7,70.2-38.2,105.2-57.5
	C1455.9,1211.4,1467.7,1205.1,1481.5,1197.5z"/>
<path d="M1413.5,657.5c18,22.3,35,43.2,51.9,64.1c53,65.3,106,130.6,158.9,196c33.4,41.2,66.6,82.6,100.1,123.8
	c8.8,10.8,18.7,20.8,27.4,31.7c6.7,8.5,5.1,16.1-6.5,16.9c-30.1,2.1-60.8,3.7-83-22.3c-33.9-39.7-66.9-80.1-100.2-120.2
	c-28.7-34.6-57.5-69.2-86-104c-31.1-37.9-61.9-76-92.6-114.3c-2.1-2.6-3.6-8.1-2.3-10.8C1391.3,698.3,1402.1,678.8,1413.5,657.5z"/>
<polygon points="1452.3,924.4 1473.5,1008.7 1557.8,1029.9 1473.5,1051 1452.3,1135.3 1431.2,1051 1346.9,1029.9 1431.2,1008.7 "/>
</svg>
